HIERARCHY
ROOT Bone
{
	OFFSET 0.000000 0.000000 0.000000
	CHANNELS 6 Xposition Yposition Zposition Xrotation Yrotation Zrotation
	JOINT Bone_L
	{
		OFFSET 0.000000 -0.095536 0.501822
		CHANNELS 3 Xrotation Yrotation Zrotation
		JOINT Bone_L.001
		{
			OFFSET 0.223613 0.093172 -0.100160
			CHANNELS 3 Xrotation Yrotation Zrotation
			End Site
			{
				OFFSET 0.000000 -0.347065 0.027952
			}
		}
	}
	JOINT Bone_R
	{
		OFFSET -0.000000 -0.095536 0.501822
		CHANNELS 3 Xrotation Yrotation Zrotation
		JOINT Bone_R.001
		{
			OFFSET -0.223613 0.093172 -0.100160
			CHANNELS 3 Xrotation Yrotation Zrotation
			End Site
			{
				OFFSET 0.000000 -0.347065 0.027952
			}
		}
	}
	JOINT Bone_L.003
	{
		OFFSET 0.102489 0.020929 0.331783
		CHANNELS 6 Xposition Yposition Zposition Xrotation Yrotation Zrotation
		JOINT Bone_L.004
		{
			OFFSET 0.181685 0.144416 -0.095501
			CHANNELS 3 Xrotation Yrotation Zrotation
			End Site
			{
				OFFSET -0.009317 0.004659 -0.235259
			}
		}
	}
	JOINT Bone_L.005
	{
		OFFSET 0.102489 0.020929 0.331783
		CHANNELS 6 Xposition Yposition Zposition Xrotation Yrotation Zrotation
		JOINT Bone_L.006
		{
			OFFSET 0.193332 -0.172368 -0.039598
			CHANNELS 3 Xrotation Yrotation Zrotation
			End Site
			{
				OFFSET 0.000000 0.002329 -0.291162
			}
		}
	}
	JOINT Bone_R.003
	{
		OFFSET -0.102489 0.020929 0.331783
		CHANNELS 6 Xposition Yposition Zposition Xrotation Yrotation Zrotation
		JOINT Bone_R.004
		{
			OFFSET -0.181685 0.144416 -0.095501
			CHANNELS 3 Xrotation Yrotation Zrotation
			End Site
			{
				OFFSET 0.009317 0.004659 -0.235259
			}
		}
	}
	JOINT Bone_R.005
	{
		OFFSET -0.102489 0.020929 0.331783
		CHANNELS 6 Xposition Yposition Zposition Xrotation Yrotation Zrotation
		JOINT Bone_R.006
		{
			OFFSET -0.193332 -0.172368 -0.039598
			CHANNELS 3 Xrotation Yrotation Zrotation
			End Site
			{
				OFFSET 0.000000 0.002329 -0.291162
			}
		}
	}
	JOINT Bone.001
	{
		OFFSET 0.000000 -0.095536 0.501822
		CHANNELS 3 Xrotation Yrotation Zrotation
		JOINT Bone.002
		{
			OFFSET -0.000000 -0.158392 0.149075
			CHANNELS 3 Xrotation Yrotation Zrotation
			End Site
			{
				OFFSET -0.000000 -0.202649 -0.041927
			}
		}
	}
}
MOTION
Frames: 20
Frame Time: 0.041667
0.000000 0.000000 0.000000 -0.000000 0.000000 -0.000000 0.000002 -0.000002 -0.000007 -0.000001 0.000001 -0.000002 0.000002 0.000005 -0.000006 -0.000000 -0.000000 0.000002 0.102489 0.020929 0.331783 0.000001 -0.000002 -0.000009 0.000000 -0.000001 -0.000003 0.102489 0.020929 0.331783 0.000002 0.000001 -0.000003 -0.000000 0.000000 0.000000 -0.102489 0.020929 0.331783 -0.000001 0.000000 0.000003 -0.000000 0.000001 0.000001 -0.102489 0.020929 0.331783 -0.000000 -0.000001 0.000008 0.000001 -0.000001 -0.000002 -0.000002 -0.000000 0.000000 -0.000001 -0.000000 -0.000000 
0.000000 0.000000 0.000000 -0.000000 0.000000 -0.000000 -0.333379 -0.021117 -0.865727 0.329975 0.048583 0.674790 -0.327160 -0.009143 0.909320 0.307654 -0.033086 -0.524478 0.102489 0.020929 0.331783 0.000001 -0.000002 -0.000009 0.000000 -0.000001 -0.000003 0.102489 0.020929 0.331783 0.000002 0.000001 -0.000003 -0.000000 0.000000 0.000000 -0.102489 0.020929 0.331783 -0.000001 0.000000 0.000003 -0.000000 0.000001 0.000001 -0.102489 0.020929 0.331783 -0.000000 -0.000001 0.000008 0.000001 -0.000001 -0.000002 0.191391 0.000000 0.000000 -0.244606 0.000000 -0.000000 
0.000000 0.000000 0.000000 -0.000000 0.000000 -0.000000 -1.339228 -0.054170 -3.474653 1.319095 0.218138 2.703169 -1.311775 -0.068215 3.649576 1.230437 -0.149455 -2.099767 0.102489 0.020929 0.331783 0.000001 -0.000002 -0.000009 0.000000 -0.000001 -0.000003 0.102489 0.020929 0.331783 0.000002 0.000001 -0.000003 -0.000000 0.000000 0.000000 -0.102489 0.020929 0.331783 -0.000001 0.000000 0.000003 -0.000000 0.000001 0.000001 -0.102489 0.020929 0.331783 -0.000000 -0.000001 0.000008 0.000001 -0.000001 -0.000002 0.765737 0.000000 0.000000 -0.978699 0.000000 -0.000000 
0.000000 0.000000 0.000000 -0.000000 0.000000 -0.000000 -2.965540 -0.010530 -7.692758 2.900269 0.564988 5.967899 -2.895290 -0.263400 8.079376 2.708863 -0.389994 -4.632136 0.102489 0.020929 0.331783 0.000001 -0.000002 -0.000009 0.000000 -0.000001 -0.000003 0.102489 0.020929 0.331783 0.000002 0.000001 -0.000003 -0.000000 0.000000 0.000000 -0.102489 0.020929 0.331783 -0.000001 0.000000 0.000003 -0.000000 0.000001 0.000001 -0.102489 0.020929 0.331783 -0.000000 -0.000001 0.000008 0.000001 -0.000001 -0.000002 1.688204 0.000000 0.000000 -2.157970 0.000000 -0.000000 
0.000000 0.000000 0.000000 -0.000000 0.000000 -0.000000 -5.035370 0.219818 -13.088423 4.887520 1.137835 10.122961 -4.893614 -0.691154 13.743491 4.577084 -0.791072 -7.852186 0.102489 0.020929 0.331783 0.000001 -0.000002 -0.000009 0.000000 -0.000001 -0.000003 0.102489 0.020929 0.331783 0.000002 0.000001 -0.000003 -0.000000 0.000000 0.000000 -0.102489 0.020929 0.331783 -0.000001 0.000000 0.000003 -0.000000 0.000001 0.000001 -0.102489 0.020929 0.331783 -0.000000 -0.000001 0.000008 0.000001 -0.000001 -0.000002 2.862015 0.000000 0.000000 -3.658792 0.000000 -0.000000 
0.000000 0.000000 0.000000 -0.000000 0.000000 -0.000000 -7.238922 0.686760 -18.911122 6.983122 1.916572 14.589375 -6.996680 -1.373383 19.851415 6.566482 -1.341115 -11.313851 0.102489 0.020929 0.331783 0.000001 -0.000002 -0.000009 0.000000 -0.000001 -0.000003 0.102489 0.020929 0.331783 0.000002 0.000001 -0.000003 -0.000000 0.000000 0.000000 -0.102489 0.020929 0.331783 -0.000001 0.000000 0.000003 -0.000000 0.000001 0.000001 -0.102489 0.020929 0.331783 -0.000000 -0.000001 0.000008 0.000001 -0.000001 -0.000002 4.128562 0.000000 0.000000 -5.278304 0.000000 -0.000000 
0.000000 0.000000 0.000000 -0.000000 0.000000 -0.000000 -9.224128 1.314877 -24.274018 8.863706 2.779929 18.696108 -8.866043 -2.199157 25.471816 8.376113 -1.956268 -14.500717 0.102489 0.020929 0.331783 0.000001 -0.000002 -0.000009 0.000000 -0.000001 -0.000003 0.102489 0.020929 0.331783 0.000002 0.000001 -0.000003 -0.000000 0.000000 0.000000 -0.102489 0.020929 0.331783 -0.000001 0.000000 0.000003 -0.000000 0.000001 0.000001 -0.102489 0.020929 0.331783 -0.000000 -0.000001 0.000008 0.000001 -0.000001 -0.000002 5.302355 0.000000 0.000000 -6.779097 0.000000 -0.000000 
0.000000 0.000000 0.000000 -0.000000 0.000000 -0.000000 -10.728729 1.932542 -28.445872 10.290632 3.547978 21.891742 -10.264172 -2.968181 29.840161 9.769570 -2.508036 -16.985226 0.102489 0.020929 0.331783 0.000001 -0.000002 -0.000009 0.000000 -0.000001 -0.000003 0.102489 0.020929 0.331783 0.000002 0.000001 -0.000003 -0.000000 0.000000 0.000000 -0.102489 0.020929 0.331783 -0.000001 0.000000 0.000003 -0.000000 0.000001 0.000001 -0.102489 0.020929 0.331783 -0.000000 -0.000001 0.000008 0.000001 -0.000001 -0.000002 6.224801 0.000000 0.000000 -7.958306 0.000000 -0.000000 
0.000000 0.000000 0.000000 -0.000000 0.000000 -0.000000 -11.635471 2.368553 -31.017890 11.153431 4.063461 23.864211 -11.097902 -3.495712 32.531607 10.622549 -2.880756 -18.521446 0.102489 0.020929 0.331783 0.000001 -0.000002 -0.000009 0.000000 -0.000001 -0.000003 0.102489 0.020929 0.331783 0.000002 0.000001 -0.000003 -0.000000 0.000000 0.000000 -0.102489 0.020929 0.331783 -0.000001 0.000000 0.000003 -0.000000 0.000001 0.000001 -0.102489 0.020929 0.331783 -0.000000 -0.000001 0.000008 0.000001 -0.000001 -0.000002 6.799115 0.000000 0.000000 -8.692358 -0.000000 -0.000000 
0.000000 0.000000 0.000000 -0.000000 0.000000 -0.000000 -11.932008 2.522162 -31.870055 11.436289 4.241296 24.518296 -11.368994 -3.679250 33.423059 10.904116 -3.009801 -19.031380 0.102489 0.020929 0.331783 0.000001 -0.000002 -0.000009 0.000000 -0.000001 -0.000003 0.102489 0.020929 0.331783 0.000002 0.000001 -0.000003 -0.000000 0.000000 0.000000 -0.102489 0.020929 0.331783 -0.000001 0.000000 0.000003 -0.000000 0.000001 0.000001 -0.102489 0.020929 0.331783 -0.000000 -0.000001 0.000008 0.000001 -0.000001 -0.000002 6.990504 0.000000 0.000000 -8.936946 -0.000000 -0.000000 
0.000000 0.000000 0.000000 -0.000000 0.000000 -0.000000 -11.692253 2.397534 -31.180616 11.207563 4.097147 23.989086 -11.149867 -3.530428 32.701839 10.676354 -2.905184 -18.618780 0.102489 0.020929 0.331783 0.000001 -0.000002 -0.000009 0.000000 -0.000001 -0.000003 0.102489 0.020929 0.331783 0.000002 0.000001 -0.000003 -0.000000 0.000000 0.000000 -0.102489 0.020929 0.331783 -0.000001 0.000000 0.000003 -0.000000 0.000001 0.000001 -0.102489 0.020929 0.331783 -0.000000 -0.000001 0.000008 0.000001 -0.000001 -0.000002 6.835617 0.000000 0.000000 -8.739014 -0.000000 -0.000000 
0.000000 0.000000 0.000000 -0.000000 0.000000 -0.000000 -10.959342 2.038735 -29.095469 10.509831 3.675159 22.389724 -10.476873 -3.097644 30.520041 9.985466 -2.599816 -17.372876 0.102489 0.020929 0.331783 0.000001 -0.000002 -0.000009 0.000000 -0.000001 -0.000003 0.102489 0.020929 0.331783 0.000002 0.000001 -0.000003 -0.000000 0.000000 0.000000 -0.102489 0.020929 0.331783 -0.000001 0.000000 0.000003 -0.000000 0.000001 0.000001 -0.102489 0.020929 0.331783 -0.000000 -0.000001 0.000008 0.000001 -0.000001 -0.000002 6.369419 0.000000 0.000000 -8.143161 0.000000 -0.000000 
0.000000 0.000000 0.000000 -0.000000 0.000000 -0.000000 -9.733923 1.509946 -25.675576 9.346834 3.028585 19.769458 -9.341680 -2.445410 26.939757 8.845702 -2.134441 -15.334707 0.102489 0.020929 0.331783 0.000001 -0.000002 -0.000009 0.000000 -0.000001 -0.000003 0.102489 0.020929 0.331783 0.000002 0.000001 -0.000003 -0.000000 0.000000 0.000000 -0.102489 0.020929 0.331783 -0.000001 0.000000 0.000003 -0.000000 0.000001 0.000001 -0.102489 0.020929 0.331783 -0.000000 -0.000001 0.000008 0.000001 -0.000001 -0.000002 5.611204 0.000000 0.000000 -7.173936 0.000000 -0.000000 
0.000000 0.000000 0.000000 -0.000000 0.000000 -0.000000 -8.076851 0.927081 -21.158201 7.777319 2.261364 16.310589 -7.788848 -1.696789 22.207003 7.327447 -1.586145 -12.648935 0.102489 0.020929 0.331783 0.000001 -0.000002 -0.000009 0.000000 -0.000001 -0.000003 0.102489 0.020929 0.331783 0.000002 0.000001 -0.000003 -0.000000 0.000000 0.000000 -0.102489 0.020929 0.331783 -0.000001 0.000000 0.000003 -0.000000 0.000001 0.000001 -0.102489 0.020929 0.331783 -0.000000 -0.000001 0.000008 0.000001 -0.000001 -0.000002 4.619227 0.000000 0.000000 -5.905680 0.000000 -0.000000 
0.000000 0.000000 0.000000 -0.000000 0.000000 -0.000000 -6.142820 0.425321 -16.001352 5.942794 1.506752 12.359262 -5.953919 -1.004278 16.799731 5.575871 -1.051055 -9.585207 0.102489 0.020929 0.331783 0.000001 -0.000002 -0.000009 0.000000 -0.000001 -0.000003 0.102489 0.020929 0.331783 0.000002 0.000001 -0.000003 -0.000000 0.000000 0.000000 -0.102489 0.020929 0.331783 -0.000001 0.000000 0.000003 -0.000000 0.000001 0.000001 -0.102489 0.020929 0.331783 -0.000000 -0.000001 0.000008 0.000001 -0.000001 -0.000002 3.495287 0.000000 0.000000 -4.468534 0.000000 -0.000000 
0.000000 0.000000 0.000000 -0.000000 0.000000 -0.000000 -4.171331 0.099729 -10.830043 4.061069 0.880593 8.386538 -4.061870 -0.488092 11.373109 3.798399 -0.610534 -6.506807 0.102489 0.020929 0.331783 0.000001 -0.000002 -0.000009 0.000000 -0.000001 -0.000003 0.102489 0.020929 0.331783 0.000002 0.000001 -0.000003 -0.000000 0.000000 0.000000 -0.102489 0.020929 0.331783 -0.000001 0.000000 0.000003 -0.000000 0.000001 0.000001 -0.102489 0.020929 0.331783 -0.000000 -0.000001 0.000008 0.000001 -0.000001 -0.000002 2.371328 0.000000 0.000000 -3.031377 0.000000 -0.000000 
0.000000 0.000000 0.000000 -0.000000 0.000000 -0.000000 -2.419909 -0.038463 -6.276670 2.372251 0.438621 4.873959 -2.365210 -0.184303 6.592301 2.214558 -0.302095 -3.784023 0.102489 0.020929 0.331783 0.000001 -0.000002 -0.000009 0.000000 -0.000001 -0.000003 0.102489 0.020929 0.331783 0.000002 0.000001 -0.000003 -0.000000 0.000000 0.000000 -0.102489 0.020929 0.331783 -0.000001 0.000000 0.000003 -0.000000 0.000001 0.000001 -0.102489 0.020929 0.331783 -0.000000 -0.000001 0.000008 0.000001 -0.000001 -0.000002 1.379338 0.000000 0.000000 -1.763088 0.000000 -0.000000 
0.000000 0.000000 0.000000 -0.000000 0.000000 -0.000000 -1.085118 -0.050104 -2.815831 1.070222 0.172067 2.191801 -1.063370 -0.048913 2.957578 0.998151 -0.117728 -1.702843 0.102489 0.020929 0.331783 0.000001 -0.000002 -0.000009 0.000000 -0.000001 -0.000003 0.102489 0.020929 0.331783 0.000002 0.000001 -0.000003 -0.000000 0.000000 0.000000 -0.102489 0.020929 0.331783 -0.000001 0.000000 0.000003 -0.000000 0.000001 0.000001 -0.102489 0.020929 0.331783 -0.000000 -0.000001 0.000008 0.000001 -0.000001 -0.000002 0.621103 0.000000 0.000000 -0.793825 0.000000 -0.000000 
0.000000 0.000000 0.000000 -0.000000 0.000000 -0.000000 -0.269669 -0.017459 -0.700336 0.267043 0.039009 0.545986 -0.264662 -0.007017 0.735588 0.248974 -0.026552 -0.424399 0.102489 0.020929 0.331783 0.000001 -0.000002 -0.000009 0.000000 -0.000001 -0.000003 0.102489 0.020929 0.331783 0.000002 0.000001 -0.000003 -0.000000 0.000000 0.000000 -0.102489 0.020929 0.331783 -0.000001 0.000000 0.000003 -0.000000 0.000001 0.000001 -0.102489 0.020929 0.331783 -0.000000 -0.000001 0.000008 0.000001 -0.000001 -0.000002 0.154888 0.000000 0.000000 -0.197948 0.000000 -0.000000 
0.000000 0.000000 0.000000 -0.000000 0.000000 -0.000000 0.000002 -0.000002 -0.000007 -0.000001 0.000001 -0.000002 0.000002 0.000005 -0.000006 -0.000000 -0.000000 0.000002 0.102489 0.020929 0.331783 0.000001 -0.000002 -0.000009 0.000000 -0.000001 -0.000003 0.102489 0.020929 0.331783 0.000002 0.000001 -0.000003 -0.000000 0.000000 0.000000 -0.102489 0.020929 0.331783 -0.000001 0.000000 0.000003 -0.000000 0.000001 0.000001 -0.102489 0.020929 0.331783 -0.000000 -0.000001 0.000008 0.000001 -0.000001 -0.000002 -0.000002 -0.000000 0.000000 -0.000001 -0.000000 -0.000000 
